# xmcd
#
# Track frame offsets:
#	150
#	17884
#	39097
#	60378
#	75992
#	91326
#	105414
#	119833
#	136693
#	150666
#	173025
#
# Disc length: 2633 seconds
# Revision: 1
# Processed by: cddbd v1.5.2PL0 Copyright (c) Steve Scherf et al.
# Submitted via: dBpowerAMP V12.0
#
DISCID=770a470b
DTITLE=William Lee Golden - My Life's Work
DYEAR=2000
DGENRE=Country
TTITLE0=My Life's Work
TTITLE1=Same Old Moon
TTITLE2=Red Dirt Highway
TTITLE3=Everybody Needs A Hero
TTITLE4=Carolina Café
TTITLE5=Better Days Ahead
TTITLE6=Keep Lookin' Up
TTITLE7=Just Like Me
TTITLE8=Home Sweet Home
TTITLE9=The Stone
TTITLE10=Burnin' Up The Road
EXTD=
EXTT0=
EXTT1=
EXTT2=
EXTT3=
EXTT4=
EXTT5=
EXTT6=
EXTT7=
EXTT8=
EXTT9=
EXTT10=
PLAYORDER=
